<?xml version="1.0" standalone="no"?>
<!DOCTYPE svg PUBLIC "-//W3C//DTD SVG 20010904//EN"
 "http://www.w3.org/TR/2001/REC-SVG-20010904/DTD/svg10.dtd">
<svg version="1.0" xmlns="http://www.w3.org/2000/svg"
 width="168.000000pt" height="157.000000pt" viewBox="0 0 168.000000 157.000000"
 preserveAspectRatio="xMidYMid meet">

<g transform="translate(0.000000,157.000000) scale(0.100000,-0.100000)"
fill="#000000" stroke="none">
<path d="M1275 1459 l-65 -62 0 -248 0 -247 128 -243 127 -243 3 494 2 494
-47 49 c-76 77 -74 77 -148 6z"/>
<path d="M687 1220 l-28 -49 72 -88 c39 -48 75 -92 80 -97 4 -5 13 2 19 16 10
22 5 39 -49 146 -34 67 -62 122 -64 122 -1 0 -15 -22 -30 -50z"/>
<path d="M637 589 c-123 -18 -251 -87 -354 -191 l-67 -68 156 0 156 0 51 34
c173 117 396 119 574 6 64 -41 49 -13 -37 68 -126 118 -311 176 -479 151z"/>
</g>
</svg>
