<?xml version="1.0" standalone="no"?>
<!DOCTYPE svg PUBLIC "-//W3C//DTD SVG 20010904//EN"
 "http://www.w3.org/TR/2001/REC-SVG-20010904/DTD/svg10.dtd">
<svg version="1.0" xmlns="http://www.w3.org/2000/svg"
 width="168.000000pt" height="157.000000pt" viewBox="0 0 168.000000 157.000000"
 preserveAspectRatio="xMidYMid meet">

<g transform="translate(0.000000,157.000000) scale(0.100000,-0.100000)"
fill="#000000" stroke="none">
<path d="M738 1317 c-58 -111 -177 -337 -263 -502 -87 -165 -167 -311 -180
-325 -12 -14 -32 -41 -45 -60 -23 -33 -21 -32 27 12 110 101 225 159 363 183
41 7 68 13 60 14 -46 4 -43 15 50 201 51 101 95 179 100 174 10 -11 250 -462
250 -470 0 -4 -12 -3 -27 0 -22 6 -20 2 17 -26 25 -20 57 -59 78 -98 l36 -65
-61 60 c-123 122 -253 177 -423 177 -114 0 -192 -19 -280 -69 -65 -38 -163
-117 -194 -158 l-27 -35 155 0 155 0 45 31 c181 121 410 123 588 3 l51 -35
128 3 128 3 -309 589 c-170 324 -311 590 -312 592 -2 1 -51 -88 -110 -199z"/>
<path d="M1273 1460 l-63 -59 0 -251 0 -250 130 -247 130 -248 0 500 0 499
-57 58 c-32 32 -62 58 -68 58 -5 -1 -38 -27 -72 -60z"/>
<path d="M130 206 c0 -2 -13 -41 -30 -85 -25 -68 -27 -81 -14 -81 9 0 18 9 21
20 8 29 65 28 86 -3 29 -43 29 -7 1 70 -19 50 -36 79 -47 81 -9 2 -17 1 -17
-2z m34 -58 c9 -35 8 -38 -18 -38 -23 0 -24 2 -15 30 13 36 24 38 33 8z"/>
<path d="M330 125 c0 -69 3 -85 15 -85 10 0 15 11 15 35 0 33 2 35 35 35 33 0
35 -2 35 -35 0 -24 5 -35 15 -35 12 0 15 16 15 85 0 69 -3 85 -15 85 -10 0
-15 -11 -15 -35 0 -33 -2 -35 -35 -35 -33 0 -35 2 -35 35 0 24 -5 35 -15 35
-12 0 -15 -16 -15 -85z"/>
<path d="M519 181 c-17 -18 -29 -40 -29 -56 0 -30 49 -85 75 -85 24 0 72 27
79 45 17 46 4 91 -35 110 -40 21 -57 19 -90 -14z m89 -13 c17 -17 15 -73 -2
-87 -8 -7 -27 -11 -42 -9 -57 6 -53 108 4 108 15 0 33 -5 40 -12z"/>
<path d="M680 125 c0 -69 3 -85 15 -85 12 0 15 13 15 58 l1 57 25 -47 c13 -27
28 -48 32 -48 4 0 19 21 33 48 l24 47 3 -58 c5 -89 22 -67 22 28 0 104 -13
110 -54 28 l-28 -58 -29 58 c-43 84 -59 77 -59 -28z"/>
<path d="M890 125 l0 -85 50 0 c38 0 50 4 50 15 0 10 -11 15 -35 15 -28 0 -35
4 -35 20 0 15 7 20 25 20 16 0 25 6 25 15 0 9 -9 15 -25 15 -18 0 -25 5 -25
20 0 16 7 20 35 20 24 0 35 5 35 15 0 11 -12 15 -50 15 l-50 0 0 -85z"/>
<path d="M1026 143 c15 -37 29 -76 32 -86 10 -36 35 -11 63 63 33 85 34 90 16
90 -8 0 -19 -19 -26 -42 -30 -100 -31 -100 -56 -28 -13 40 -28 66 -38 68 -14
3 -13 -6 9 -65z"/>
<path d="M1180 125 c0 -69 3 -85 15 -85 12 0 15 16 15 85 0 69 -3 85 -15 85
-12 0 -15 -16 -15 -85z"/>
<path d="M1240 125 l0 -85 45 0 c33 0 45 4 45 15 0 10 -10 15 -30 15 l-30 0 0
70 c0 56 -3 70 -15 70 -12 0 -15 -16 -15 -85z"/>
<path d="M1360 125 l0 -85 45 0 c33 0 45 4 45 15 0 10 -10 15 -30 15 l-30 0 0
70 c0 56 -3 70 -15 70 -12 0 -15 -16 -15 -85z"/>
<path d="M1504 163 c-9 -26 -23 -63 -31 -82 -16 -41 -16 -41 1 -41 8 0 18 9
21 20 5 15 15 20 40 20 25 0 35 -5 40 -20 3 -11 13 -20 21 -20 17 0 16 6 -21
105 -29 76 -47 81 -71 18z m51 -30 c5 -20 3 -23 -19 -23 -30 0 -29 0 -16 36
11 29 23 24 35 -13z"/>
<path d="M240 115 c0 -9 9 -15 25 -15 16 0 25 6 25 15 0 9 -9 15 -25 15 -16 0
-25 -6 -25 -15z"/>
</g>
</svg>
